<mxfile><diagram id="VUB7Q5XZBexkkf_p7ZRq" name="Page-1"><mxGraphModel dx="778" dy="246" grid="1" gridSize="10" guides="1" tooltips="1" connect="1" arrows="1" fold="1" page="1" pageScale="1" pageWidth="850" pageHeight="1100" math="0" shadow="0"><root><mxCell id="0"/><mxCell id="1" parent="0"/><mxCell id="20" value="&lt;p style=&quot;margin:0px;margin-top:4px;text-align:center;&quot;&gt;&lt;i&gt;&amp;lt;&amp;lt;Interface&amp;gt;&amp;gt;&lt;/i&gt;&lt;br&gt;&lt;b&gt;Multimedia&lt;/b&gt;&lt;/p&gt;&lt;hr size=&quot;1&quot;&gt;&lt;p style=&quot;margin:0px;margin-left:4px;&quot;&gt;+&lt;span style=&quot;background-color: initial;&quot;&gt;&amp;nbsp;operador &amp;gt; (float): void&lt;/span&gt;&lt;/p&gt;&lt;p style=&quot;margin: 0px 0px 0px 4px;&quot;&gt;&lt;span style=&quot;background-color: initial;&quot;&gt;+ operador == (string): void&lt;/span&gt;&lt;/p&gt;&lt;p style=&quot;margin: 0px 0px 0px 4px;&quot;&gt;&lt;span style=&quot;background-color: initial;&quot;&gt;+ calificarVideo(string, float): void&lt;/span&gt;&lt;/p&gt;&lt;p style=&quot;margin: 0px 0px 0px 4px;&quot;&gt;+ guardar_Multimedia(): ostream&lt;/p&gt;&lt;p style=&quot;margin: 0px 0px 0px 4px;&quot;&gt;+ mostrar_Episodios_Serie(Serie):void&lt;/p&gt;" style="verticalAlign=top;align=left;overflow=fill;fontSize=12;fontFamily=Helvetica;html=1;" parent="1" vertex="1"><mxGeometry x="330" y="210" width="220" height="130" as="geometry"/></mxCell><mxCell id="25" value="Episodio" style="swimlane;fontStyle=1;align=center;verticalAlign=top;childLayout=stackLayout;horizontal=1;startSize=26;horizontalStack=0;resizeParent=1;resizeParentMax=0;resizeLast=0;collapsible=1;marginBottom=0;" parent="1" vertex="1"><mxGeometry x="500" y="670" width="250" height="140" as="geometry"/></mxCell><mxCell id="26" value="- temporada: int&#10;- numeroEpisodio: int" style="text;strokeColor=none;fillColor=none;align=left;verticalAlign=top;spacingLeft=4;spacingRight=4;overflow=hidden;rotatable=0;points=[[0,0.5],[1,0.5]];portConstraint=eastwest;" parent="25" vertex="1"><mxGeometry y="26" width="250" height="34" as="geometry"/></mxCell><mxCell id="27" value="" style="line;strokeWidth=1;fillColor=none;align=left;verticalAlign=middle;spacingTop=-1;spacingLeft=3;spacingRight=3;rotatable=0;labelPosition=right;points=[];portConstraint=eastwest;strokeColor=inherit;" parent="25" vertex="1"><mxGeometry y="60" width="250" height="8" as="geometry"/></mxCell><mxCell id="28" value="+ Episodio (string,string,float,int,string,int,int)&#10;+ mostrarNombreE(): void&#10;+ mostrarCalificacionE(): void&#10;+ mostrarDuracionE(): void&#10;" style="text;strokeColor=none;fillColor=none;align=left;verticalAlign=top;spacingLeft=4;spacingRight=4;overflow=hidden;rotatable=0;points=[[0,0.5],[1,0.5]];portConstraint=eastwest;" parent="25" vertex="1"><mxGeometry y="68" width="250" height="72" as="geometry"/></mxCell><mxCell id="29" value="Pelicula" style="swimlane;fontStyle=1;align=center;verticalAlign=top;childLayout=stackLayout;horizontal=1;startSize=26;horizontalStack=0;resizeParent=1;resizeParentMax=0;resizeLast=0;collapsible=1;marginBottom=0;" parent="1" vertex="1"><mxGeometry x="120" y="420" width="240" height="140" as="geometry"/></mxCell><mxCell id="30" value="- generoPelicula: String" style="text;strokeColor=none;fillColor=none;align=left;verticalAlign=top;spacingLeft=4;spacingRight=4;overflow=hidden;rotatable=0;points=[[0,0.5],[1,0.5]];portConstraint=eastwest;" parent="29" vertex="1"><mxGeometry y="26" width="240" height="26" as="geometry"/></mxCell><mxCell id="31" value="" style="line;strokeWidth=1;fillColor=none;align=left;verticalAlign=middle;spacingTop=-1;spacingLeft=3;spacingRight=3;rotatable=0;labelPosition=right;points=[];portConstraint=eastwest;strokeColor=inherit;" parent="29" vertex="1"><mxGeometry y="52" width="240" height="8" as="geometry"/></mxCell><mxCell id="32" value="+ Pelicula(string,string,float,int,string,string)&#10;+ operador &gt; (float): void&#10;+ operador == (string): void&#10;+ calificarVideo(string, float): void&#10;+ guardar_Multimedia(): ostream" style="text;strokeColor=none;fillColor=none;align=left;verticalAlign=top;spacingLeft=4;spacingRight=4;overflow=hidden;rotatable=0;points=[[0,0.5],[1,0.5]];portConstraint=eastwest;" parent="29" vertex="1"><mxGeometry y="60" width="240" height="80" as="geometry"/></mxCell><mxCell id="33" value="Serie" style="swimlane;fontStyle=1;align=center;verticalAlign=top;childLayout=stackLayout;horizontal=1;startSize=26;horizontalStack=0;resizeParent=1;resizeParentMax=0;resizeLast=0;collapsible=1;marginBottom=0;" parent="1" vertex="1"><mxGeometry x="515" y="420" width="220" height="190" as="geometry"/></mxCell><mxCell id="34" value="- idSerie: string&#10;- nombreSerie: String&#10;- generoSerie: String&#10;- episodio: vector&lt;Episodio&gt;" style="text;strokeColor=none;fillColor=none;align=left;verticalAlign=top;spacingLeft=4;spacingRight=4;overflow=hidden;rotatable=0;points=[[0,0.5],[1,0.5]];portConstraint=eastwest;" parent="33" vertex="1"><mxGeometry y="26" width="220" height="64" as="geometry"/></mxCell><mxCell id="35" value="" style="line;strokeWidth=1;fillColor=none;align=left;verticalAlign=middle;spacingTop=-1;spacingLeft=3;spacingRight=3;rotatable=0;labelPosition=right;points=[];portConstraint=eastwest;strokeColor=inherit;" parent="33" vertex="1"><mxGeometry y="90" width="220" height="8" as="geometry"/></mxCell><mxCell id="36" value="+ Serie (string,string,string)&#10;+ operador &gt; (float): void&#10;+ operador == (string): void&#10;+ calificarVideo(string, float): void&#10;+ guardar_Multimedia(): ostream&#10;+ mostrar_Episodios_Serie(Serie):void" style="text;strokeColor=none;fillColor=none;align=left;verticalAlign=top;spacingLeft=4;spacingRight=4;overflow=hidden;rotatable=0;points=[[0,0.5],[1,0.5]];portConstraint=eastwest;" parent="33" vertex="1"><mxGeometry y="98" width="220" height="92" as="geometry"/></mxCell><mxCell id="37" value="Video" style="swimlane;fontStyle=1;align=center;verticalAlign=top;childLayout=stackLayout;horizontal=1;startSize=26;horizontalStack=0;resizeParent=1;resizeParentMax=0;resizeLast=0;collapsible=1;marginBottom=0;" parent="1" vertex="1"><mxGeometry x="140" y="670" width="200" height="134" as="geometry"/></mxCell><mxCell id="38" value="- id: string&#10;- nombre: String &#10;- calificación: float&#10;- duracion: int&#10;- fechaEstreno: String" style="text;strokeColor=none;fillColor=none;align=left;verticalAlign=top;spacingLeft=4;spacingRight=4;overflow=hidden;rotatable=0;points=[[0,0.5],[1,0.5]];portConstraint=eastwest;" parent="37" vertex="1"><mxGeometry y="26" width="200" height="74" as="geometry"/></mxCell><mxCell id="39" value="" style="line;strokeWidth=1;fillColor=none;align=left;verticalAlign=middle;spacingTop=-1;spacingLeft=3;spacingRight=3;rotatable=0;labelPosition=right;points=[];portConstraint=eastwest;strokeColor=inherit;" parent="37" vertex="1"><mxGeometry y="100" width="200" height="8" as="geometry"/></mxCell><mxCell id="40" value="+ Video(string,string,float,int,string)" style="text;strokeColor=none;fillColor=none;align=left;verticalAlign=top;spacingLeft=4;spacingRight=4;overflow=hidden;rotatable=0;points=[[0,0.5],[1,0.5]];portConstraint=eastwest;" parent="37" vertex="1"><mxGeometry y="108" width="200" height="26" as="geometry"/></mxCell><mxCell id="41" value="App" style="swimlane;fontStyle=1;align=center;verticalAlign=top;childLayout=stackLayout;horizontal=1;startSize=26;horizontalStack=0;resizeParent=1;resizeParentMax=0;resizeLast=0;collapsible=1;marginBottom=0;" parent="1" vertex="1"><mxGeometry x="357" y="11" width="174" height="120" as="geometry"/></mxCell><mxCell id="42" value="- serie: vector&lt;Serie&gt;&#10;- pelicula: vector&lt;Pelicula&gt;" style="text;strokeColor=none;fillColor=none;align=left;verticalAlign=top;spacingLeft=4;spacingRight=4;overflow=hidden;rotatable=0;points=[[0,0.5],[1,0.5]];portConstraint=eastwest;" parent="41" vertex="1"><mxGeometry y="26" width="174" height="34" as="geometry"/></mxCell><mxCell id="43" value="" style="line;strokeWidth=1;fillColor=none;align=left;verticalAlign=middle;spacingTop=-1;spacingLeft=3;spacingRight=3;rotatable=0;labelPosition=right;points=[];portConstraint=eastwest;strokeColor=inherit;" parent="41" vertex="1"><mxGeometry y="60" width="174" height="8" as="geometry"/></mxCell><mxCell id="44" value="+ cargar_Archivo(): void&#10;+ agregar_multimedia(): void&#10;+ menu(): void&#10;" style="text;strokeColor=none;fillColor=none;align=left;verticalAlign=top;spacingLeft=4;spacingRight=4;overflow=hidden;rotatable=0;points=[[0,0.5],[1,0.5]];portConstraint=eastwest;" parent="41" vertex="1"><mxGeometry y="68" width="174" height="52" as="geometry"/></mxCell><mxCell id="45" value="" style="endArrow=block;dashed=1;endFill=0;endSize=12;html=1;exitX=0.5;exitY=0;exitDx=0;exitDy=0;entryX=0;entryY=0.5;entryDx=0;entryDy=0;" edge="1" parent="1" source="29" target="20"><mxGeometry width="160" relative="1" as="geometry"><mxPoint x="360" y="320" as="sourcePoint"/><mxPoint x="520" y="320" as="targetPoint"/><Array as="points"><mxPoint x="240" y="275"/></Array></mxGeometry></mxCell><mxCell id="46" value="" style="endArrow=block;dashed=1;endFill=0;endSize=12;html=1;exitX=0.5;exitY=0;exitDx=0;exitDy=0;entryX=1;entryY=0.5;entryDx=0;entryDy=0;" edge="1" parent="1" source="33" target="20"><mxGeometry width="160" relative="1" as="geometry"><mxPoint x="360" y="320" as="sourcePoint"/><mxPoint x="520" y="320" as="targetPoint"/><Array as="points"><mxPoint x="625" y="275"/></Array></mxGeometry></mxCell><mxCell id="47" value="" style="endArrow=diamondThin;endFill=1;endSize=24;html=1;exitX=0.5;exitY=0;exitDx=0;exitDy=0;entryX=0.473;entryY=1.013;entryDx=0;entryDy=0;entryPerimeter=0;" edge="1" parent="1" source="20" target="44"><mxGeometry width="160" relative="1" as="geometry"><mxPoint x="360" y="190" as="sourcePoint"/><mxPoint x="520" y="190" as="targetPoint"/></mxGeometry></mxCell><mxCell id="48" value="Extends" style="endArrow=block;endSize=16;endFill=0;html=1;entryX=1;entryY=0.5;entryDx=0;entryDy=0;exitX=-0.004;exitY=0.407;exitDx=0;exitDy=0;exitPerimeter=0;" edge="1" parent="1" source="27" target="38"><mxGeometry x="0.9922" y="387" width="160" relative="1" as="geometry"><mxPoint x="470" y="760" as="sourcePoint"/><mxPoint x="550" y="720" as="targetPoint"/><mxPoint x="1" as="offset"/></mxGeometry></mxCell><mxCell id="49" value="Extends" style="endArrow=block;endSize=16;endFill=0;html=1;entryX=0.5;entryY=0;entryDx=0;entryDy=0;" edge="1" parent="1" source="32" target="37"><mxGeometry x="1" y="455" width="160" relative="1" as="geometry"><mxPoint x="390" y="600" as="sourcePoint"/><mxPoint x="550" y="600" as="targetPoint"/><mxPoint x="-385" y="450" as="offset"/></mxGeometry></mxCell><mxCell id="51" value="" style="endArrow=diamondThin;endFill=1;endSize=24;html=1;exitX=0.5;exitY=0;exitDx=0;exitDy=0;" edge="1" parent="1" source="25"><mxGeometry width="160" relative="1" as="geometry"><mxPoint x="600.7" y="708.32" as="sourcePoint"/><mxPoint x="625" y="610" as="targetPoint"/></mxGeometry></mxCell></root></mxGraphModel></diagram></mxfile>